<mxfile host="app.diagrams.net" modified="2023-10-28T00:25:20.154Z" agent="Mozilla/5.0 (Windows NT 10.0; Win64; x64) AppleWebKit/537.36 (KHTML, like Gecko) Chrome/118.0.0.0 Safari/537.36" etag="-0uEbnH_TEoo8242MXj-" version="22.0.8" type="device">
  <diagram name="Page-1" id="Ga0jKoiy9qEvCnekh419">
    <mxGraphModel dx="989" dy="517" grid="1" gridSize="10" guides="1" tooltips="1" connect="1" arrows="1" fold="1" page="1" pageScale="1" pageWidth="827" pageHeight="1169" math="0" shadow="0">
      <root>
        <mxCell id="0" />
        <mxCell id="1" parent="0" />
        <mxCell id="qaf_4kSaQ71nZ5oa2IJd-5" value="" style="edgeStyle=orthogonalEdgeStyle;rounded=0;orthogonalLoop=1;jettySize=auto;html=1;" edge="1" parent="1" source="qaf_4kSaQ71nZ5oa2IJd-2" target="qaf_4kSaQ71nZ5oa2IJd-4">
          <mxGeometry relative="1" as="geometry">
            <Array as="points">
              <mxPoint x="222" y="110" />
            </Array>
          </mxGeometry>
        </mxCell>
        <mxCell id="qaf_4kSaQ71nZ5oa2IJd-7" value="" style="edgeStyle=orthogonalEdgeStyle;rounded=0;orthogonalLoop=1;jettySize=auto;html=1;" edge="1" parent="1" source="qaf_4kSaQ71nZ5oa2IJd-2" target="qaf_4kSaQ71nZ5oa2IJd-6">
          <mxGeometry relative="1" as="geometry" />
        </mxCell>
        <mxCell id="qaf_4kSaQ71nZ5oa2IJd-9" value="" style="edgeStyle=orthogonalEdgeStyle;rounded=0;orthogonalLoop=1;jettySize=auto;html=1;" edge="1" parent="1" source="qaf_4kSaQ71nZ5oa2IJd-2" target="qaf_4kSaQ71nZ5oa2IJd-8">
          <mxGeometry relative="1" as="geometry" />
        </mxCell>
        <mxCell id="qaf_4kSaQ71nZ5oa2IJd-2" value="Home Page" style="rounded=0;whiteSpace=wrap;html=1;" vertex="1" parent="1">
          <mxGeometry x="354" y="80" width="120" height="60" as="geometry" />
        </mxCell>
        <mxCell id="qaf_4kSaQ71nZ5oa2IJd-4" value="About&lt;br&gt;" style="rounded=0;whiteSpace=wrap;html=1;" vertex="1" parent="1">
          <mxGeometry x="154" y="180" width="136" height="60" as="geometry" />
        </mxCell>
        <mxCell id="qaf_4kSaQ71nZ5oa2IJd-6" value="Contact" style="rounded=0;whiteSpace=wrap;html=1;" vertex="1" parent="1">
          <mxGeometry x="354" y="180" width="120" height="60" as="geometry" />
        </mxCell>
        <mxCell id="qaf_4kSaQ71nZ5oa2IJd-13" value="" style="edgeStyle=orthogonalEdgeStyle;rounded=0;orthogonalLoop=1;jettySize=auto;html=1;" edge="1" parent="1" source="qaf_4kSaQ71nZ5oa2IJd-8" target="qaf_4kSaQ71nZ5oa2IJd-12">
          <mxGeometry relative="1" as="geometry">
            <Array as="points">
              <mxPoint x="500" y="210" />
            </Array>
          </mxGeometry>
        </mxCell>
        <mxCell id="qaf_4kSaQ71nZ5oa2IJd-15" value="" style="edgeStyle=orthogonalEdgeStyle;rounded=0;orthogonalLoop=1;jettySize=auto;html=1;" edge="1" parent="1" source="qaf_4kSaQ71nZ5oa2IJd-8" target="qaf_4kSaQ71nZ5oa2IJd-14">
          <mxGeometry relative="1" as="geometry" />
        </mxCell>
        <mxCell id="qaf_4kSaQ71nZ5oa2IJd-8" value="Services" style="rounded=0;whiteSpace=wrap;html=1;" vertex="1" parent="1">
          <mxGeometry x="540" y="180" width="120" height="60" as="geometry" />
        </mxCell>
        <mxCell id="qaf_4kSaQ71nZ5oa2IJd-12" value="Web Development" style="rounded=0;whiteSpace=wrap;html=1;" vertex="1" parent="1">
          <mxGeometry x="420" y="320" width="120" height="60" as="geometry" />
        </mxCell>
        <mxCell id="qaf_4kSaQ71nZ5oa2IJd-14" value="Web Design" style="rounded=0;whiteSpace=wrap;html=1;" vertex="1" parent="1">
          <mxGeometry x="540" y="320" width="120" height="60" as="geometry" />
        </mxCell>
      </root>
    </mxGraphModel>
  </diagram>
</mxfile>
